# Blender v2.78 (sub 0) OBJ File: 'simplebullet.blend'
# www.blender.org
mtllib simplebullet.mtl
o Cylinder
v 0.000000 1.000000 -1.517459
v 0.000000 1.000000 1.517459
v 0.195090 0.980785 -1.517459
v 0.195090 0.980785 1.517459
v 0.382683 0.923880 -1.517459
v 0.382683 0.923879 1.517459
v 0.555570 0.831470 -1.517459
v 0.555570 0.831470 1.517459
v 0.707107 0.707107 -1.517459
v 0.707107 0.707107 1.517459
v 0.831470 0.555570 -1.517459
v 0.831470 0.555570 1.517459
v 0.923880 0.382683 -1.517459
v 0.923880 0.382683 1.517459
v 0.980785 0.195090 -1.517459
v 0.980785 0.195090 1.517459
v 1.000000 0.000000 -1.517459
v 1.000000 0.000000 1.517459
v 0.980785 -0.195090 -1.517459
v 0.980785 -0.195090 1.517459
v 0.923880 -0.382683 -1.517459
v 0.923880 -0.382683 1.517459
v 0.831470 -0.555570 -1.517459
v 0.831470 -0.555570 1.517459
v 0.707107 -0.707107 -1.517459
v 0.707107 -0.707107 1.517459
v 0.555570 -0.831470 -1.517459
v 0.555570 -0.831470 1.517459
v 0.382683 -0.923880 -1.517459
v 0.382683 -0.923880 1.517459
v 0.195090 -0.980785 -1.517459
v 0.195090 -0.980785 1.517459
v -0.000000 -1.000000 -1.517459
v -0.000000 -1.000000 1.517459
v -0.195091 -0.980785 -1.517459
v -0.195091 -0.980785 1.517459
v -0.382684 -0.923879 -1.517459
v -0.382684 -0.923879 1.517459
v -0.555571 -0.831469 -1.517459
v -0.555571 -0.831469 1.517459
v -0.707107 -0.707106 -1.517459
v -0.707107 -0.707106 1.517459
v -0.831470 -0.555570 -1.517459
v -0.831470 -0.555570 1.517459
v -0.923880 -0.382683 -1.517459
v -0.923880 -0.382683 1.517459
v -0.980785 -0.195089 -1.517459
v -0.980785 -0.195090 1.517459
v -1.000000 0.000001 -1.517459
v -1.000000 0.000001 1.517459
v -0.980785 0.195091 -1.517459
v -0.980785 0.195091 1.517459
v -0.923879 0.382685 -1.517459
v -0.923879 0.382684 1.517459
v -0.831469 0.555571 -1.517459
v -0.831469 0.555571 1.517459
v -0.707106 0.707108 -1.517459
v -0.707106 0.707108 1.517459
v -0.555569 0.831470 -1.517459
v -0.555569 0.831470 1.517459
v -0.382682 0.923880 -1.517459
v -0.382682 0.923880 1.517459
v -0.195089 0.980786 -1.517459
v -0.195089 0.980785 1.517459
v 0.000000 1.000000 -1.517459
v 0.195090 0.980785 -1.517459
v 0.382683 0.923880 -1.517459
v 0.555570 0.831470 -1.517459
v 0.707107 0.707107 -1.517459
v 0.831470 0.555570 -1.517459
v 0.923880 0.382683 -1.517459
v 0.980785 0.195090 -1.517459
v 1.000000 0.000000 -1.517459
v 0.980785 -0.195090 -1.517459
v 0.923880 -0.382683 -1.517459
v 0.831470 -0.555570 -1.517459
v 0.707107 -0.707107 -1.517459
v 0.555570 -0.831470 -1.517459
v 0.382683 -0.923880 -1.517459
v 0.195090 -0.980785 -1.517459
v -0.000000 -1.000000 -1.517459
v -0.195091 -0.980785 -1.517459
v -0.382684 -0.923879 -1.517459
v -0.555571 -0.831469 -1.517459
v -0.707107 -0.707106 -1.517459
v -0.831470 -0.555570 -1.517459
v -0.923880 -0.382683 -1.517459
v -0.980785 -0.195089 -1.517459
v -1.000000 0.000001 -1.517459
v -0.980785 0.195091 -1.517459
v -0.923879 0.382685 -1.517459
v -0.831469 0.555571 -1.517459
v -0.707106 0.707108 -1.517459
v -0.555569 0.831470 -1.517459
v -0.382682 0.923880 -1.517459
v -0.195089 0.980786 -1.517459
v 0.000000 0.624052 -2.491533
v 0.121747 0.612061 -2.491533
v 0.238814 0.576549 -2.491533
v 0.346705 0.518880 -2.491533
v 0.441271 0.441271 -2.491533
v 0.518880 0.346705 -2.491533
v 0.576549 0.238814 -2.491533
v 0.612061 0.121747 -2.491533
v 0.624052 0.000000 -2.491533
v 0.612061 -0.121746 -2.491533
v 0.576549 -0.238814 -2.491533
v 0.518880 -0.346704 -2.491533
v 0.441271 -0.441271 -2.491533
v 0.346705 -0.518880 -2.491533
v 0.238814 -0.576548 -2.491533
v 0.121746 -0.612060 -2.491533
v -0.000000 -0.624051 -2.491533
v -0.121747 -0.612060 -2.491533
v -0.238814 -0.576548 -2.491533
v -0.346705 -0.518880 -2.491533
v -0.441271 -0.441271 -2.491533
v -0.518880 -0.346704 -2.491533
v -0.576549 -0.238814 -2.491533
v -0.612061 -0.121746 -2.491533
v -0.624052 0.000001 -2.491533
v -0.612060 0.121747 -2.491533
v -0.576548 0.238815 -2.491533
v -0.518879 0.346705 -2.491533
v -0.441270 0.441272 -2.491533
v -0.346704 0.518881 -2.491533
v -0.238813 0.576549 -2.491533
v -0.121745 0.612061 -2.491533
v 0.000000 0.372094 -2.932313
v 0.072592 0.364944 -2.932313
v 0.142394 0.343770 -2.932313
v 0.206724 0.309385 -2.932313
v 0.263110 0.263110 -2.932313
v 0.309384 0.206724 -2.932313
v 0.343769 0.142394 -2.932313
v 0.364944 0.072592 -2.932313
v 0.372093 0.000000 -2.932313
v 0.364944 -0.072591 -2.932313
v 0.343769 -0.142394 -2.932313
v 0.309384 -0.206724 -2.932313
v 0.263110 -0.263109 -2.932313
v 0.206724 -0.309384 -2.932313
v 0.142394 -0.343769 -2.932313
v 0.072592 -0.364943 -2.932313
v -0.000000 -0.372093 -2.932313
v -0.072592 -0.364943 -2.932313
v -0.142394 -0.343769 -2.932313
v -0.206724 -0.309384 -2.932313
v -0.263110 -0.263109 -2.932313
v -0.309384 -0.206723 -2.932313
v -0.343770 -0.142393 -2.932313
v -0.364944 -0.072591 -2.932313
v -0.372093 0.000001 -2.932313
v -0.364944 0.072593 -2.932313
v -0.343769 0.142395 -2.932313
v -0.309384 0.206725 -2.932313
v -0.263109 0.263110 -2.932313
v -0.206723 0.309385 -2.932313
v -0.142393 0.343770 -2.932313
v -0.072591 0.364944 -2.932313
v 0.000000 0.126053 -3.097670
v 0.024592 0.123631 -3.097670
v 0.048238 0.116458 -3.097670
v 0.070031 0.104809 -3.097670
v 0.089133 0.089133 -3.097670
v 0.104809 0.070031 -3.097670
v 0.116457 0.048239 -3.097670
v 0.123630 0.024592 -3.097670
v 0.126052 0.000000 -3.097670
v 0.123630 -0.024591 -3.097670
v 0.116457 -0.048238 -3.097670
v 0.104809 -0.070030 -3.097670
v 0.089133 -0.089132 -3.097670
v 0.070031 -0.104808 -3.097670
v 0.048238 -0.116457 -3.097670
v 0.024592 -0.123630 -3.097670
v 0.000000 -0.126052 -3.097670
v -0.024592 -0.123630 -3.097670
v -0.048238 -0.116457 -3.097670
v -0.070031 -0.104808 -3.097670
v -0.089132 -0.089132 -3.097670
v -0.104809 -0.070030 -3.097670
v -0.116457 -0.048238 -3.097670
v -0.123630 -0.024591 -3.097670
v -0.126052 0.000001 -3.097670
v -0.123630 0.024592 -3.097670
v -0.116457 0.048239 -3.097670
v -0.104808 0.070031 -3.097670
v -0.089132 0.089133 -3.097670
v -0.070031 0.104809 -3.097670
v -0.048238 0.116458 -3.097670
v -0.024591 0.123631 -3.097670
v 0.000000 -0.018196 -3.156398
v -0.003550 -0.017847 -3.156398
v -0.006963 -0.016811 -3.156398
v -0.010109 -0.015130 -3.156398
v -0.012867 -0.012867 -3.156398
v -0.015130 -0.010109 -3.156398
v -0.016812 -0.006963 -3.156398
v -0.017847 -0.003550 -3.156398
v -0.018197 0.000000 -3.156398
v -0.017847 0.003551 -3.156398
v -0.016812 0.006964 -3.156398
v -0.015130 0.010110 -3.156398
v -0.012867 0.012868 -3.156398
v -0.010109 0.015131 -3.156398
v -0.006963 0.016812 -3.156398
v -0.003550 0.017848 -3.156398
v 0.000000 0.018197 -3.156398
v 0.003550 0.017848 -3.156398
v 0.006964 0.016812 -3.156398
v 0.010110 0.015131 -3.156398
v 0.012867 0.012868 -3.156398
v 0.015130 0.010110 -3.156398
v 0.016812 0.006964 -3.156398
v 0.017847 0.003550 -3.156398
v 0.018197 0.000000 -3.156398
v 0.017847 -0.003550 -3.156398
v 0.016812 -0.006963 -3.156398
v 0.015130 -0.010109 -3.156398
v 0.012867 -0.012867 -3.156398
v 0.010110 -0.015130 -3.156398
v 0.006964 -0.016811 -3.156398
v 0.003550 -0.017847 -3.156398
vn 0.0980 0.9952 0.0000
vn 0.2903 0.9569 0.0000
vn 0.4714 0.8819 0.0000
vn 0.6344 0.7730 0.0000
vn 0.7730 0.6344 0.0000
vn 0.8819 0.4714 0.0000
vn 0.9569 0.2903 0.0000
vn 0.9952 0.0980 0.0000
vn 0.9952 -0.0980 -0.0000
vn 0.9569 -0.2903 -0.0000
vn 0.8819 -0.4714 -0.0000
vn 0.7730 -0.6344 -0.0000
vn 0.6344 -0.7730 -0.0000
vn 0.4714 -0.8819 -0.0000
vn 0.2903 -0.9569 -0.0000
vn 0.0980 -0.9952 -0.0000
vn -0.0980 -0.9952 -0.0000
vn -0.2903 -0.9569 -0.0000
vn -0.4714 -0.8819 -0.0000
vn -0.6344 -0.7730 -0.0000
vn -0.7730 -0.6344 -0.0000
vn -0.8819 -0.4714 -0.0000
vn -0.9569 -0.2903 -0.0000
vn -0.9952 -0.0980 -0.0000
vn -0.9952 0.0980 0.0000
vn -0.9569 0.2903 0.0000
vn -0.8819 0.4714 0.0000
vn -0.7730 0.6344 0.0000
vn -0.6344 0.7730 0.0000
vn -0.4714 0.8819 0.0000
vn 0.0000 0.0000 1.0000
vn -0.2903 0.9569 0.0000
vn -0.0980 0.9952 0.0000
vn 0.0915 0.9290 -0.3586
vn 0.5514 0.6719 -0.4945
vn -0.7216 0.5922 -0.3586
vn 0.2710 -0.8933 -0.3586
vn 0.2710 0.8933 -0.3586
vn -0.5922 0.7216 -0.3586
vn 0.0915 -0.9290 -0.3586
vn 0.4401 0.8233 -0.3586
vn -0.4401 0.8233 -0.3586
vn -0.0915 -0.9290 -0.3586
vn 0.5922 0.7216 -0.3586
vn -0.2710 0.8933 -0.3586
vn -0.2710 -0.8933 -0.3586
vn 0.7216 0.5922 -0.3586
vn -0.0915 0.9290 -0.3586
vn -0.4401 -0.8233 -0.3586
vn 0.8233 0.4401 -0.3586
vn -0.5922 -0.7216 -0.3586
vn 0.8933 0.2710 -0.3586
vn -0.7216 -0.5922 -0.3586
vn 0.9290 0.0915 -0.3586
vn -0.8233 -0.4401 -0.3586
vn 0.9290 -0.0915 -0.3586
vn -0.8933 -0.2710 -0.3586
vn 0.8933 -0.2710 -0.3586
vn -0.9290 -0.0915 -0.3586
vn 0.8233 -0.4401 -0.3586
vn -0.9290 0.0915 -0.3586
vn 0.7216 -0.5922 -0.3586
vn -0.8933 0.2710 -0.3586
vn 0.5922 -0.7216 -0.3586
vn -0.8233 0.4401 -0.3586
vn 0.4401 -0.8233 -0.3586
vn 0.5356 0.1625 -0.8287
vn -0.2523 0.8318 -0.4945
vn -0.2523 -0.8318 -0.4945
vn 0.6719 0.5514 -0.4945
vn -0.0852 0.8650 -0.4945
vn -0.4097 -0.7666 -0.4945
vn 0.7666 0.4097 -0.4945
vn -0.5514 -0.6719 -0.4945
vn 0.8318 0.2523 -0.4945
vn -0.6719 -0.5514 -0.4945
vn 0.8650 0.0852 -0.4945
vn -0.7666 -0.4097 -0.4945
vn 0.8650 -0.0852 -0.4945
vn -0.8318 -0.2523 -0.4945
vn 0.8318 -0.2523 -0.4945
vn -0.8650 -0.0852 -0.4945
vn 0.7666 -0.4097 -0.4945
vn -0.8650 0.0852 -0.4945
vn 0.6719 -0.5514 -0.4945
vn -0.8318 0.2523 -0.4945
vn 0.5514 -0.6719 -0.4945
vn -0.7666 0.4097 -0.4945
vn 0.4097 -0.7666 -0.4945
vn 0.0852 0.8650 -0.4945
vn -0.6719 0.5514 -0.4945
vn 0.2523 -0.8318 -0.4945
vn 0.2523 0.8318 -0.4945
vn -0.5514 0.6719 -0.4945
vn 0.0852 -0.8650 -0.4945
vn 0.4097 0.7666 -0.4945
vn -0.4097 0.7666 -0.4945
vn -0.0852 -0.8650 -0.4945
vn 0.3623 -0.1099 -0.9255
vn -0.4326 -0.3550 -0.8287
vn 0.5570 0.0549 -0.8287
vn -0.4936 -0.2638 -0.8287
vn 0.5570 -0.0549 -0.8287
vn -0.5356 -0.1625 -0.8287
vn 0.5356 -0.1625 -0.8287
vn -0.5570 -0.0549 -0.8287
vn 0.4936 -0.2638 -0.8287
vn -0.5570 0.0549 -0.8287
vn 0.4326 -0.3550 -0.8287
vn -0.5356 0.1625 -0.8287
vn 0.3550 -0.4326 -0.8287
vn -0.4936 0.2638 -0.8287
vn 0.2638 -0.4936 -0.8287
vn 0.0549 0.5570 -0.8287
vn -0.4326 0.3550 -0.8287
vn 0.1625 -0.5356 -0.8287
vn 0.1625 0.5356 -0.8287
vn -0.3550 0.4326 -0.8287
vn 0.0549 -0.5570 -0.8287
vn 0.2638 0.4936 -0.8287
vn -0.2638 0.4936 -0.8287
vn -0.0549 -0.5570 -0.8287
vn 0.3550 0.4326 -0.8287
vn -0.1625 0.5356 -0.8287
vn -0.1625 -0.5356 -0.8287
vn 0.4326 0.3550 -0.8287
vn -0.0549 0.5570 -0.8287
vn -0.2638 -0.4936 -0.8287
vn 0.4936 0.2638 -0.8287
vn -0.3550 -0.4326 -0.8287
vn -0.0000 0.0000 -1.0000
vn -0.3768 -0.0371 -0.9255
vn 0.3339 -0.1785 -0.9255
vn -0.3768 0.0371 -0.9255
vn 0.2927 -0.2402 -0.9255
vn -0.3623 0.1099 -0.9255
vn 0.2402 -0.2927 -0.9255
vn -0.3339 0.1785 -0.9255
vn 0.1785 -0.3339 -0.9255
vn 0.0371 0.3768 -0.9255
vn -0.2927 0.2402 -0.9255
vn 0.1099 -0.3623 -0.9255
vn 0.1099 0.3623 -0.9255
vn -0.2402 0.2927 -0.9255
vn 0.0371 -0.3768 -0.9255
vn 0.1785 0.3339 -0.9255
vn -0.1785 0.3339 -0.9255
vn -0.0371 -0.3768 -0.9255
vn 0.2402 0.2927 -0.9255
vn -0.1099 0.3623 -0.9255
vn -0.1099 -0.3623 -0.9255
vn 0.2927 0.2402 -0.9255
vn -0.0371 0.3768 -0.9255
vn -0.1785 -0.3339 -0.9255
vn 0.3339 0.1785 -0.9255
vn -0.2402 -0.2927 -0.9255
vn 0.3623 0.1099 -0.9255
vn -0.2927 -0.2402 -0.9255
vn 0.3768 0.0371 -0.9255
vn -0.3339 -0.1785 -0.9255
vn 0.3768 -0.0371 -0.9255
vn -0.3623 -0.1099 -0.9255
usemtl None
s off
f 1//1 2//1 4//1 3//1
f 3//2 4//2 6//2 5//2
f 5//3 6//3 8//3 7//3
f 7//4 8//4 10//4 9//4
f 9//5 10//5 12//5 11//5
f 11//6 12//6 14//6 13//6
f 13//7 14//7 16//7 15//7
f 15//8 16//8 18//8 17//8
f 17//9 18//9 20//9 19//9
f 19//10 20//10 22//10 21//10
f 21//11 22//11 24//11 23//11
f 23//12 24//12 26//12 25//12
f 25//13 26//13 28//13 27//13
f 27//14 28//14 30//14 29//14
f 29//15 30//15 32//15 31//15
f 31//16 32//16 34//16 33//16
f 33//17 34//17 36//17 35//17
f 35//18 36//18 38//18 37//18
f 37//19 38//19 40//19 39//19
f 39//20 40//20 42//20 41//20
f 41//21 42//21 44//21 43//21
f 43//22 44//22 46//22 45//22
f 45//23 46//23 48//23 47//23
f 47//24 48//24 50//24 49//24
f 49//25 50//25 52//25 51//25
f 51//26 52//26 54//26 53//26
f 53//27 54//27 56//27 55//27
f 55//28 56//28 58//28 57//28
f 57//29 58//29 60//29 59//29
f 59//30 60//30 62//30 61//30
f 4//31 2//31 64//31 62//31 60//31 58//31 56//31 54//31 52//31 50//31 48//31 46//31 44//31 42//31 40//31 38//31 36//31 34//31 32//31 30//31 28//31 26//31 24//31 22//31 20//31 18//31 16//31 14//31 12//31 10//31 8//31 6//31
f 61//32 62//32 64//32 63//32
f 63//33 64//33 2//33 1//33
f 11//31 13//31 71//31 70//31
f 65//34 66//34 98//34 97//34
f 29//31 31//31 80//31 79//31
f 47//31 49//31 89//31 88//31
f 3//31 5//31 67//31 66//31
f 21//31 23//31 76//31 75//31
f 39//31 41//31 85//31 84//31
f 57//31 59//31 94//31 93//31
f 13//31 15//31 72//31 71//31
f 31//31 33//31 81//31 80//31
f 49//31 51//31 90//31 89//31
f 5//31 7//31 68//31 67//31
f 23//31 25//31 77//31 76//31
f 41//31 43//31 86//31 85//31
f 59//31 61//31 95//31 94//31
f 15//31 17//31 73//31 72//31
f 33//31 35//31 82//31 81//31
f 51//31 53//31 91//31 90//31
f 7//31 9//31 69//31 68//31
f 25//31 27//31 78//31 77//31
f 43//31 45//31 87//31 86//31
f 61//31 63//31 96//31 95//31
f 17//31 19//31 74//31 73//31
f 35//31 37//31 83//31 82//31
f 53//31 55//31 92//31 91//31
f 9//31 11//31 70//31 69//31
f 27//31 29//31 79//31 78//31
f 45//31 47//31 88//31 87//31
f 1//31 3//31 66//31 65//31
f 63//31 1//31 65//31 96//31
f 19//31 21//31 75//31 74//31
f 37//31 39//31 84//31 83//31
f 55//31 57//31 93//31 92//31
f 100//35 101//35 133//35 132//35
f 92//36 93//36 125//36 124//36
f 79//37 80//37 112//37 111//37
f 66//38 67//38 99//38 98//38
f 93//39 94//39 126//39 125//39
f 80//40 81//40 113//40 112//40
f 67//41 68//41 100//41 99//41
f 94//42 95//42 127//42 126//42
f 81//43 82//43 114//43 113//43
f 68//44 69//44 101//44 100//44
f 95//45 96//45 128//45 127//45
f 82//46 83//46 115//46 114//46
f 69//47 70//47 102//47 101//47
f 96//48 65//48 97//48 128//48
f 83//49 84//49 116//49 115//49
f 70//50 71//50 103//50 102//50
f 84//51 85//51 117//51 116//51
f 71//52 72//52 104//52 103//52
f 85//53 86//53 118//53 117//53
f 72//54 73//54 105//54 104//54
f 86//55 87//55 119//55 118//55
f 73//56 74//56 106//56 105//56
f 87//57 88//57 120//57 119//57
f 74//58 75//58 107//58 106//58
f 88//59 89//59 121//59 120//59
f 75//60 76//60 108//60 107//60
f 89//61 90//61 122//61 121//61
f 76//62 77//62 109//62 108//62
f 90//63 91//63 123//63 122//63
f 77//64 78//64 110//64 109//64
f 91//65 92//65 124//65 123//65
f 78//66 79//66 111//66 110//66
f 135//67 136//67 168//67 167//67
f 127//68 128//68 160//68 159//68
f 114//69 115//69 147//69 146//69
f 101//70 102//70 134//70 133//70
f 128//71 97//71 129//71 160//71
f 115//72 116//72 148//72 147//72
f 102//73 103//73 135//73 134//73
f 116//74 117//74 149//74 148//74
f 103//75 104//75 136//75 135//75
f 117//76 118//76 150//76 149//76
f 104//77 105//77 137//77 136//77
f 118//78 119//78 151//78 150//78
f 105//79 106//79 138//79 137//79
f 119//80 120//80 152//80 151//80
f 106//81 107//81 139//81 138//81
f 120//82 121//82 153//82 152//82
f 107//83 108//83 140//83 139//83
f 121//84 122//84 154//84 153//84
f 108//85 109//85 141//85 140//85
f 122//86 123//86 155//86 154//86
f 109//87 110//87 142//87 141//87
f 123//88 124//88 156//88 155//88
f 110//89 111//89 143//89 142//89
f 97//90 98//90 130//90 129//90
f 124//91 125//91 157//91 156//91
f 111//92 112//92 144//92 143//92
f 98//93 99//93 131//93 130//93
f 125//94 126//94 158//94 157//94
f 112//95 113//95 145//95 144//95
f 99//96 100//96 132//96 131//96
f 126//97 127//97 159//97 158//97
f 113//98 114//98 146//98 145//98
f 170//99 171//99 203//99 202//99
f 149//100 150//100 182//100 181//100
f 136//101 137//101 169//101 168//101
f 150//102 151//102 183//102 182//102
f 137//103 138//103 170//103 169//103
f 151//104 152//104 184//104 183//104
f 138//105 139//105 171//105 170//105
f 152//106 153//106 185//106 184//106
f 139//107 140//107 172//107 171//107
f 153//108 154//108 186//108 185//108
f 140//109 141//109 173//109 172//109
f 154//110 155//110 187//110 186//110
f 141//111 142//111 174//111 173//111
f 155//112 156//112 188//112 187//112
f 142//113 143//113 175//113 174//113
f 129//114 130//114 162//114 161//114
f 156//115 157//115 189//115 188//115
f 143//116 144//116 176//116 175//116
f 130//117 131//117 163//117 162//117
f 157//118 158//118 190//118 189//118
f 144//119 145//119 177//119 176//119
f 131//120 132//120 164//120 163//120
f 158//121 159//121 191//121 190//121
f 145//122 146//122 178//122 177//122
f 132//123 133//123 165//123 164//123
f 159//124 160//124 192//124 191//124
f 146//125 147//125 179//125 178//125
f 133//126 134//126 166//126 165//126
f 160//127 129//127 161//127 192//127
f 147//128 148//128 180//128 179//128
f 134//129 135//129 167//129 166//129
f 148//130 149//130 181//130 180//130
f 193//131 194//131 195//131 196//131 197//131 198//131 199//131 200//131 201//131 202//131 203//131 204//131 205//131 206//131 207//131 208//131 209//131 210//131 211//131 212//131 213//131 214//131 215//131 216//131 217//131 218//131 219//131 220//131 221//131 222//131 223//131 224//131
f 184//132 185//132 217//132 216//132
f 171//133 172//133 204//133 203//133
f 185//134 186//134 218//134 217//134
f 172//135 173//135 205//135 204//135
f 186//136 187//136 219//136 218//136
f 173//137 174//137 206//137 205//137
f 187//138 188//138 220//138 219//138
f 174//139 175//139 207//139 206//139
f 161//140 162//140 194//140 193//140
f 188//141 189//141 221//141 220//141
f 175//142 176//142 208//142 207//142
f 162//143 163//143 195//143 194//143
f 189//144 190//144 222//144 221//144
f 176//145 177//145 209//145 208//145
f 163//146 164//146 196//146 195//146
f 190//147 191//147 223//147 222//147
f 177//148 178//148 210//148 209//148
f 164//149 165//149 197//149 196//149
f 191//150 192//150 224//150 223//150
f 178//151 179//151 211//151 210//151
f 165//152 166//152 198//152 197//152
f 192//153 161//153 193//153 224//153
f 179//154 180//154 212//154 211//154
f 166//155 167//155 199//155 198//155
f 180//156 181//156 213//156 212//156
f 167//157 168//157 200//157 199//157
f 181//158 182//158 214//158 213//158
f 168//159 169//159 201//159 200//159
f 182//160 183//160 215//160 214//160
f 169//161 170//161 202//161 201//161
f 183//162 184//162 216//162 215//162
